# xmcd
#
# Track frame offsets: 
#        150
#        12770
#        30315
#        42842
#        66375
#        81810
#        106077
#        122065
#        141007
#        151887
#        169855
#
# Disc length: 2443 seconds
#
# Revision: 0
# Processed by: cddbd v1.5.2PL0 Copyright (c) Steve Scherf et al.
# Submitted via: ExactAudioCopy v0.99pb5
#
DISCID=8009890b
DTITLE=Jeff Taylor - Hurtin' Game
DYEAR=1997
DGENRE=Blues
TTITLE0=Cast Your Spell
TTITLE1=Things Could Get Worse
TTITLE2=You're Got It All
TTITLE3=Worst Of It Yet
TTITLE4=Got To Have Somebody
TTITLE5=Hurtin' Game
TTITLE6=Long, Long Time Ago
TTITLE7=Hard Luck And Whiskey
TTITLE8=Killing Streak
TTITLE9=This Shot's No Good
TTITLE10=I'm Gone
EXTD=
EXTT0=
EXTT1=
EXTT2=
EXTT3=
EXTT4=
EXTT5=
EXTT6=
EXTT7=
EXTT8=
EXTT9=
EXTT10=
PLAYORDER=
